<?xml version="1.0" encoding="utf-8"?>
<svg viewBox="108.561 144.541 338.709 101.737" xmlns="http://www.w3.org/2000/svg">
  <path d="M 127.274 203.989 Q 122.867 203.989 118.595 202.395 Q 114.324 200.802 110.934 197.548 L 116.222 191.039 Q 118.595 193.073 121.613 194.225 Q 124.63 195.378 127.545 195.378 Q 130.664 195.378 132.189 194.225 Q 133.715 193.073 133.715 191.107 Q 133.715 189.683 132.935 188.835 Q 132.155 187.988 130.732 187.31 Q 129.308 186.632 127.342 185.818 L 121.579 183.445 Q 119.341 182.428 117.273 180.835 Q 115.205 179.242 113.951 176.903 Q 112.697 174.563 112.697 171.309 Q 112.697 167.648 114.697 164.699 Q 116.697 161.749 120.257 159.953 Q 123.816 158.156 128.426 158.156 Q 132.427 158.156 136.156 159.58 Q 139.885 161.003 142.664 163.715 L 137.376 170.156 Q 135.206 168.529 132.935 167.648 Q 130.664 166.766 128.426 166.766 Q 125.85 166.766 124.325 167.817 Q 122.799 168.868 122.799 170.767 Q 122.799 172.055 123.68 172.97 Q 124.562 173.885 126.121 174.53 Q 127.681 175.174 129.511 175.987 L 135.206 178.292 Q 137.918 179.377 139.851 181.004 Q 141.783 182.632 142.868 184.903 Q 143.953 187.174 143.953 190.293 Q 143.953 193.954 141.986 197.073 Q 140.02 200.192 136.291 202.09 Q 132.562 203.989 127.274 203.989 Z" style="fill: rgb(255, 255, 255); white-space: pre;"/>
  <path d="M 151.454 203.175 L 151.454 158.969 L 162.574 158.969 L 169.625 178.631 Q 170.303 180.598 170.879 182.598 Q 171.455 184.598 172.066 186.767 L 172.337 186.767 Q 172.947 184.598 173.489 182.598 Q 174.032 180.598 174.71 178.631 L 181.625 158.969 L 192.745 158.969 L 192.745 203.175 L 183.592 203.175 L 183.592 186.971 Q 183.592 184.801 183.829 181.852 Q 184.066 178.903 184.371 175.953 Q 184.676 173.004 184.948 170.834 L 184.676 170.834 L 181.083 182.496 L 174.845 199.378 L 169.015 199.378 L 162.845 182.496 L 159.387 170.834 L 159.116 170.834 Q 159.387 173.004 159.692 175.953 Q 159.997 178.903 160.201 181.852 Q 160.404 184.801 160.404 186.971 L 160.404 203.175 Z" style="fill: rgb(255, 255, 255); white-space: pre;"/>
  <path d="M 203.112 203.175 L 203.112 158.969 L 213.079 158.969 L 213.079 175.987 L 228.334 175.987 L 228.334 158.969 L 238.368 158.969 L 238.368 203.175 L 228.334 203.175 L 228.334 184.733 L 213.079 184.733 L 213.079 203.175 Z" style="fill: rgb(255, 255, 255); white-space: pre;"/>
  <path d="M 262.293 203.989 Q 257.886 203.989 253.615 202.395 Q 249.343 200.802 245.953 197.548 L 251.242 191.039 Q 253.615 193.073 256.632 194.225 Q 259.649 195.378 262.564 195.378 Q 265.683 195.378 267.208 194.225 Q 268.734 193.073 268.734 191.107 Q 268.734 189.683 267.954 188.835 Q 267.175 187.988 265.751 187.31 Q 264.327 186.632 262.361 185.818 L 256.598 183.445 Q 254.36 182.428 252.292 180.835 Q 250.225 179.242 248.97 176.903 Q 247.716 174.563 247.716 171.309 Q 247.716 167.648 249.716 164.699 Q 251.716 161.749 255.276 159.953 Q 258.835 158.156 263.446 158.156 Q 267.446 158.156 271.175 159.58 Q 274.904 161.003 277.684 163.715 L 272.395 170.156 Q 270.226 168.529 267.954 167.648 Q 265.683 166.766 263.446 166.766 Q 260.869 166.766 259.344 167.817 Q 257.818 168.868 257.818 170.767 Q 257.818 172.055 258.7 172.97 Q 259.581 173.885 261.14 174.53 Q 262.7 175.174 264.53 175.987 L 270.226 178.292 Q 272.938 179.377 274.87 181.004 Q 276.802 182.632 277.887 184.903 Q 278.972 187.174 278.972 190.293 Q 278.972 193.954 277.006 197.073 Q 275.039 200.192 271.31 202.09 Q 267.581 203.989 262.293 203.989 Z" style="fill: rgb(255, 255, 255); white-space: pre;"/>
  <path d="M 297.389 187.717 L 294.562 164.202 L 294.048 149.681 L 309.211 149.681 L 308.826 164.202 L 305.87 187.717 Z" style="fill: rgb(255, 255, 255); white-space: pre;"/>
  <path d="M 338.211 238.089 Q 338.853 227.167 340.331 218.107 Q 341.809 209.048 344.636 200.888 Q 347.463 192.729 351.703 184.954 Q 355.944 177.18 362.112 168.828 L 323.305 168.828 L 323.305 156.363 L 378.174 156.363 L 378.174 165.358 Q 370.85 174.353 366.16 182.449 Q 361.469 190.544 358.899 198.832 Q 356.329 207.121 355.109 216.63 Q 353.888 226.139 353.245 238.089 Z" style="fill: rgb(255, 255, 255); white-space: pre;"/>
  <path d="M 414.767 239.631 Q 402.046 239.631 394.529 228.644 Q 387.011 217.658 387.011 196.841 Q 387.011 176.152 394.529 165.487 Q 402.046 154.821 414.767 154.821 Q 427.489 154.821 435.006 165.487 Q 442.523 176.152 442.523 196.841 Q 442.523 217.658 435.006 228.644 Q 427.489 239.631 414.767 239.631 Z M 414.767 228.066 Q 418.751 228.066 421.835 225.111 Q 424.919 222.155 426.654 215.28 Q 428.388 208.406 428.388 196.841 Q 428.388 185.276 426.654 178.594 Q 424.919 171.912 421.835 169.149 Q 418.751 166.386 414.767 166.386 Q 410.912 166.386 407.828 169.149 Q 404.744 171.912 402.945 178.594 Q 401.146 185.276 401.146 196.841 Q 401.146 208.406 402.945 215.28 Q 404.744 222.155 407.828 225.111 Q 410.912 228.066 414.767 228.066 Z" style="fill: rgb(255, 255, 255); white-space: pre;"/>
  <text style="fill: rgb(255, 255, 255); font-family: Arial, sans-serif; font-size: 31.2px; letter-spacing: 7.5px; white-space: pre;" x="115.81" y="234.591">class of</text>
</svg>