<?xml version="1.0" encoding="utf-8"?>
<svg viewBox="108.561 107.598 83.773 46.526" xmlns="http://www.w3.org/2000/svg">
  <path d="M 113.363 132.343 Q 112.232 132.343 111.136 131.934 Q 110.04 131.525 109.17 130.69 L 110.527 129.019 Q 111.136 129.541 111.91 129.837 Q 112.685 130.133 113.433 130.133 Q 114.233 130.133 114.625 129.837 Q 115.016 129.541 115.016 129.037 Q 115.016 128.671 114.816 128.454 Q 114.616 128.236 114.251 128.062 Q 113.885 127.888 113.381 127.68 L 111.902 127.071 Q 111.328 126.81 110.797 126.401 Q 110.266 125.992 109.944 125.392 Q 109.622 124.791 109.622 123.956 Q 109.622 123.016 110.136 122.26 Q 110.649 121.503 111.562 121.042 Q 112.476 120.58 113.659 120.58 Q 114.686 120.58 115.643 120.946 Q 116.6 121.311 117.313 122.007 L 115.956 123.66 Q 115.399 123.243 114.816 123.016 Q 114.233 122.79 113.659 122.79 Q 112.998 122.79 112.606 123.06 Q 112.215 123.33 112.215 123.817 Q 112.215 124.147 112.441 124.382 Q 112.667 124.617 113.068 124.783 Q 113.468 124.948 113.938 125.157 L 115.399 125.748 Q 116.095 126.027 116.591 126.444 Q 117.087 126.862 117.365 127.445 Q 117.644 128.028 117.644 128.828 Q 117.644 129.768 117.139 130.568 Q 116.635 131.368 115.678 131.856 Q 114.721 132.343 113.363 132.343 Z" style="fill: rgb(64, 112, 166); white-space: pre;"/>
  <path d="M 119.559 132.134 L 119.559 120.789 L 122.413 120.789 L 124.222 125.835 Q 124.396 126.34 124.544 126.853 Q 124.692 127.366 124.849 127.923 L 124.918 127.923 Q 125.075 127.366 125.214 126.853 Q 125.353 126.34 125.527 125.835 L 127.302 120.789 L 130.156 120.789 L 130.156 132.134 L 127.807 132.134 L 127.807 127.975 Q 127.807 127.419 127.868 126.662 Q 127.929 125.905 128.007 125.148 Q 128.085 124.391 128.155 123.834 L 128.085 123.834 L 127.163 126.827 L 125.562 131.16 L 124.066 131.16 L 122.482 126.827 L 121.595 123.834 L 121.525 123.834 Q 121.595 124.391 121.673 125.148 Q 121.752 125.905 121.804 126.662 Q 121.856 127.419 121.856 127.975 L 121.856 132.134 Z" style="fill: rgb(64, 112, 166); white-space: pre;"/>
  <path d="M 132.797 132.134 L 132.797 120.789 L 135.354 120.789 L 135.354 125.157 L 139.269 125.157 L 139.269 120.789 L 141.845 120.789 L 141.845 132.134 L 139.269 132.134 L 139.269 127.401 L 135.354 127.401 L 135.354 132.134 Z" style="fill: rgb(64, 112, 166); white-space: pre;"/>
  <path d="M 147.98 132.343 Q 146.849 132.343 145.753 131.934 Q 144.657 131.525 143.787 130.69 L 145.144 129.019 Q 145.753 129.541 146.528 129.837 Q 147.302 130.133 148.05 130.133 Q 148.85 130.133 149.242 129.837 Q 149.633 129.541 149.633 129.037 Q 149.633 128.671 149.433 128.454 Q 149.233 128.236 148.868 128.062 Q 148.502 127.888 147.998 127.68 L 146.519 127.071 Q 145.945 126.81 145.414 126.401 Q 144.883 125.992 144.561 125.392 Q 144.239 124.791 144.239 123.956 Q 144.239 123.016 144.753 122.26 Q 145.266 121.503 146.18 121.042 Q 147.093 120.58 148.276 120.58 Q 149.303 120.58 150.26 120.946 Q 151.217 121.311 151.93 122.007 L 150.573 123.66 Q 150.016 123.243 149.433 123.016 Q 148.85 122.79 148.276 122.79 Q 147.615 122.79 147.224 123.06 Q 146.832 123.33 146.832 123.817 Q 146.832 124.147 147.058 124.382 Q 147.284 124.617 147.685 124.783 Q 148.085 124.948 148.555 125.157 L 150.016 125.748 Q 150.712 126.027 151.208 126.444 Q 151.704 126.862 151.982 127.445 Q 152.261 128.028 152.261 128.828 Q 152.261 129.768 151.756 130.568 Q 151.252 131.368 150.295 131.856 Q 149.338 132.343 147.98 132.343 Z" style="fill: rgb(64, 112, 166); white-space: pre;"/>
  <path d="M 157.037 128.161 L 156.311 122.122 L 156.179 118.393 L 160.073 118.393 L 159.974 122.122 L 159.215 128.161 Z" style="fill: rgb(64, 112, 166); white-space: pre;"/>
  <path d="M 166.246 141.097 Q 166.411 138.292 166.791 135.966 Q 167.17 133.639 167.896 131.544 Q 168.622 129.448 169.711 127.452 Q 170.8 125.455 172.384 123.31 L 162.418 123.31 L 162.418 120.109 L 176.509 120.109 L 176.509 122.419 Q 174.628 124.729 173.424 126.808 Q 172.219 128.887 171.559 131.016 Q 170.899 133.144 170.586 135.586 Q 170.272 138.028 170.107 141.097 Z" style="fill: rgb(64, 112, 166); white-space: pre;"/>
  <path d="M 184.636 141.493 Q 181.369 141.493 179.439 138.672 Q 177.508 135.85 177.508 130.504 Q 177.508 125.191 179.439 122.452 Q 181.369 119.713 184.636 119.713 Q 187.903 119.713 189.834 122.452 Q 191.764 125.191 191.764 130.504 Q 191.764 135.85 189.834 138.672 Q 187.903 141.493 184.636 141.493 Z M 184.636 138.523 Q 185.659 138.523 186.451 137.764 Q 187.243 137.005 187.689 135.24 Q 188.134 133.474 188.134 130.504 Q 188.134 127.534 187.689 125.818 Q 187.243 124.102 186.451 123.393 Q 185.659 122.683 184.636 122.683 Q 183.646 122.683 182.854 123.393 Q 182.062 124.102 181.6 125.818 Q 181.138 127.534 181.138 130.504 Q 181.138 133.474 181.6 135.24 Q 182.062 137.005 182.854 137.764 Q 183.646 138.523 184.636 138.523 Z" style="fill: rgb(64, 112, 166); white-space: pre;"/>
  <text style="fill: rgb(64, 112, 166); font-family: Arial, sans-serif; font-size: 8px; letter-spacing: 2px; white-space: pre;" x="110.422" y="140.199">class of</text>
</svg>